<?xml version="1.0" standalone="no"?>
<!DOCTYPE svg PUBLIC "-//W3C//DTD SVG 20010904//EN"
 "http://www.w3.org/TR/2001/REC-SVG-20010904/DTD/svg10.dtd">
<svg version="1.0" xmlns="http://www.w3.org/2000/svg"
 width="1500.000000pt" height="1500.000000pt" viewBox="0 0 1500.000000 1500.000000"
 preserveAspectRatio="xMidYMid meet">
<metadata>
Created by potrace 1.11, written by Peter Selinger 2001-2013
</metadata>
<g transform="translate(0.000000,1500.000000) scale(0.100000,-0.100000)"
fill="#000000" stroke="none">
<path d="M3580 14993 c-1073 -80 -1995 -594 -2610 -1453 -555 -775 -860 -1777
-952 -3120 -19 -286 -16 -968 5 -1165 92 -843 316 -1584 734 -2418 746 -1492
2028 -3026 3798 -4543 885 -758 1982 -1571 2858 -2118 l108 -68 202 135 c1003
671 2146 1572 3046 2402 101 93 209 193 240 221 l55 50 -1008 1048 c-555 576
-1013 1045 -1020 1042 -6 -2 -62 -27 -123 -55 -337 -153 -699 -251 -1078 -293
-155 -17 -575 -17 -730 0 -689 77 -1308 335 -1860 775 -127 102 -427 402 -529
530 -402 505 -664 1088 -765 1707 -37 226 -46 341 -46 610 0 269 9 384 46 610
101 618 363 1202 765 1707 102 128 402 428 529 530 493 394 1042 643 1637 742
226 38 320 45 588 45 268 0 362 -7 588 -45 595 -99 1144 -348 1637 -742 127
-102 427 -402 529 -530 402 -505 664 -1088 765 -1707 37 -226 46 -341 46 -610
0 -269 -9 -384 -46 -610 -56 -344 -166 -690 -321 -1008 l-60 -124 29 -31 c52
-56 1814 -1890 1870 -1947 l54 -55 41 45 c71 79 341 419 488 615 1049 1398
1660 2762 1804 4025 48 416 48 940 0 1530 -103 1291 -447 2304 -1033 3040 -98
122 -310 341 -429 441 -490 414 -1064 663 -1743 758 -417 58 -1085 52 -1626
-14 -913 -112 -1705 -411 -2259 -852 -107 -85 -256 -228 -322 -307 l-40 -49
-94 86 c-670 618 -1681 1025 -2833 1141 -295 30 -739 44 -935 29z"/>
<path d="M7260 10069 c-659 -74 -1230 -481 -1520 -1080 -379 -787 -175 -1736
495 -2297 889 -744 2217 -544 2849 430 522 804 358 1889 -379 2506 -401 336
-933 499 -1445 441z"/>
</g>
</svg>
